<?xml version="1.0" encoding="UTF-8"?>
<svg width="98px" height="32px" viewBox="0 0 98 32" version="1.1" xmlns="http://www.w3.org/2000/svg" xmlns:xlink="http://www.w3.org/1999/xlink">
    <title>logo-cocacola</title>
    <g id="Coca-Cola" stroke="none" stroke-width="1" fill="none" fill-rule="evenodd">
        <g id="coke-01" transform="translate(-16.000000, -20.000000)" fill="#F40000">
            <g id="logo-cocacola" transform="translate(16.000000, 20.000000)">
                <path d="M37.5102564,27.9009768 C33.87558,25.5595849 28.9428571,25.1487179 20.98779,27.3557998 C12.5070818,29.3487179 9.67948718,30.6262515 5.96605617,28.0616606 C4.53943834,26.8018315 4.02796093,24.7733822 4.40989011,21.8515263 C5.2957265,17.0884005 7.68962149,12.5046398 11.9418803,7.42014652 C14.3152625,4.77521368 16.5169719,2.50537241 19.4240537,1.59389499 C21.6521368,1.02210012 21.4438339,2.77313797 21.1742369,3.02356532 C20.8897436,3.02356532 20.4118437,3.06837607 20.0424908,3.30940171 C19.742735,3.54188034 18.9199023,4.29255189 18.8757021,5.3023199 C18.8119658,6.84810745 20.4115995,6.52637363 21.1015873,5.67765568 C21.8452991,4.72124542 22.9444444,2.88974359 22.0798535,1.18278388 C21.7174603,0.575213675 21.0913309,0.155311355 20.3139194,0.0123321123 C17.6518926,-0.13980464 15.1727717,1.12918193 12.8846154,2.53211233 C7.88070818,6.00818071 3.87789988,10.8247863 1.61294261,16.0970696 C0.307203907,19.2781441 -0.873748474,23.8349206 0.896336996,27.5437118 C2.26581197,30.117094 5.10866911,31.4840049 8.5004884,31.1981685 C10.8793651,30.9482295 13.7559219,30.1793651 15.6905983,29.7151404 C17.6253968,29.2500611 27.5286935,25.8459096 30.7826618,31.7708181 C30.7826618,31.7708181 31.8647131,29.6703297 34.5688645,29.6255189 C36.7920635,29.4203907 39.9993895,30.2691087 42.3349206,31.9844933 C41.5567766,30.8142857 39.3506716,29.0896215 37.5102564,27.9009768 Z" id="Path"></path>
                <path d="M21.997558,8.01880342 C20.1452991,6.8035409 16.4224664,9.12686203 13.4406593,13.1120879 C10.7139194,16.6868132 9.53650794,20.841514 10.8179487,22.7627595 C12.7239316,25.0234432 16.2625153,21.7351648 17.7672772,19.9750916 L17.9614164,19.7693529 C18.9847375,18.6702076 19.7752137,17.347619 20.5405372,16.0785104 C20.5405372,16.0785104 21.2438339,14.9168498 21.2774115,14.8631258 C21.7120879,14.7830281 22.2356532,14.6578755 22.825641,14.4880342 C22.8172161,14.514652 20.5683761,18.2946276 20.7978022,20.1708181 C20.8692308,20.7432234 20.8147741,22.834188 22.8561661,23.4684982 C25.5770452,23.9245421 27.7496947,21.8153846 29.6664225,19.9388278 C29.6664225,19.9388278 29.9930403,19.6263736 30.1777778,19.4479853 C30.1310134,19.6350427 30.0700855,19.8847375 30.0700855,19.8847375 C29.2735043,22.6549451 30.3472527,23.2362637 31.0189255,23.4506716 C33.04884,24.0409035 35.4738706,21.0918193 35.4818071,21.0918193 C35.4188034,22.020757 35.2350427,22.7891331 36.2142857,23.4058608 C37.1384615,23.7367521 38.0738706,23.2322344 38.7849817,22.7586081 C41.3460317,20.9537241 43.4092796,18.1285714 45.0757021,15.6866911 L44.0126984,15.6866911 C44.0001221,15.6866911 41.3897436,19.4703297 39.6946276,20.292674 C39.6919414,20.292674 39.3833944,20.4510379 39.2057387,20.3257631 C38.9855922,20.1380952 39.0724054,19.7477411 39.2083028,19.4713065 C39.2168498,19.4533578 45.7533578,8.11648352 45.7533578,8.11648352 L42.6671551,8.11648352 C42.6671551,8.11648352 42.3300366,8.66190476 42.3025641,8.6976801 C42.2818071,8.67985348 42.2323565,8.58608059 42.1981685,8.54114774 C40.2860806,5.8962149 35.956044,9.96459096 32.6960928,14.6825397 C31.4410256,16.4967033 29.8431013,18.5393162 28.1862027,20.0136752 C28.1862027,20.0136752 25.7315018,22.2637363 24.6827839,20.6471306 C24.2993895,19.9678877 24.4173382,18.9748474 24.6335775,18.3227106 C25.8547009,14.8465201 27.9588523,11.6918193 30.3533578,9.78840049 C31.0291819,9.26153846 31.7639805,9.10915751 32.1284493,9.33260073 C32.4759463,9.53846154 32.5319902,10.0473748 32.31221,10.3959707 C31.7545788,10.3781441 31.3076923,10.547619 30.9445665,10.9229548 C30.2290598,11.6736264 29.980464,12.397558 30.2079365,13.076801 C31.3130647,14.6494505 33.517094,11.5396825 33.4105006,9.64529915 C33.3724054,8.96605617 33.0101343,8.32283272 32.4692308,8.00976801 C31.6632479,7.52747253 30.4336996,7.65238095 29.6379731,8.03687424 C28.5726496,8.43882784 26.886569,9.84163614 25.9023199,10.9319902 C24.6632479,12.2993895 22.5380952,13.818315 21.8736264,13.6482295 C22.0908425,13.0672772 23.8858364,9.39474969 21.997558,8.01880342 L21.997558,8.01880342 Z M36.876801,13.4517705 C37.4771673,12.6208791 39.2245421,10.3957265 39.6505495,10.0205128 C41.0832723,8.76007326 41.6559219,9.31465201 41.7054945,9.70757021 C40.3683761,12.1023199 38.790232,14.8457875 37.3064713,17.31221 C37.3095238,17.3034188 36.8421245,18.0180708 36.8421245,18.0180708 C36.1868132,19.0185592 35.5269841,19.8765568 34.4506716,20.4750916 C34.2971917,20.5201465 34.0442002,20.5380952 33.8758242,20.4124542 C33.673138,20.2783883 33.5931624,20.0549451 33.6159951,19.8225885 C33.6805861,19.0543346 34.4627595,16.7046398 36.876801,13.4517705 L36.876801,13.4517705 Z M20.0874237,14.8903541 C20.0874237,14.8903541 20.0604396,14.9710623 20.0472527,14.9974359 C20.0438339,14.9974359 18.7015873,17.1864469 18.7015873,17.1864469 C17.8915751,18.2678877 16.8802198,19.6264957 15.6159951,20.2785104 C15.2412698,20.4035409 14.723199,20.4842491 14.4592186,20.1538462 C13.8996337,19.4835165 14.1880342,18.5540904 14.4223443,17.803663 L14.5053724,17.5355311 C15.1771673,15.7128205 16.2429792,14.1040293 17.2805861,12.6117216 C17.2935287,12.6029304 17.3225885,12.5940171 17.3330891,12.5940171 C17.3356532,12.6029304 17.3398046,12.6029304 17.341514,12.6208791 C17.9925519,13.8716728 19.2133089,14.4522589 20.1262515,14.720757 C20.131746,14.720757 20.1377297,14.7296703 20.1377297,14.747619 C20.137851,14.7742369 20.1229548,14.8102564 20.0874237,14.8903541 L20.0874237,14.8903541 Z M21.3589744,12.3081807 C21.3529915,12.3260073 20.7611722,13.6842491 20.7611722,13.6842491 C20.67558,13.7556777 20.540293,13.7200244 20.3852259,13.6842491 L20.119536,13.6393162 C19.2852259,13.3803419 18.6559219,12.8262515 18.4619048,12.1650794 C18.1943834,10.8782662 19.2936508,9.86849817 19.7778999,9.5023199 C20.2426129,9.18034188 20.9650794,9.01062271 21.3846154,9.34139194 C21.6433455,9.64529915 21.741392,10.0383394 21.741392,10.4675214 C21.741514,11.0481074 21.5622711,11.7003663 21.3589744,12.3081807 Z M60.3748474,16.4540904 C60.0771673,15.8108669 59.3708181,15.3997558 58.6179487,15.4443223 C56.173138,15.6678877 53.7818071,17.6783883 52.5261294,20.5644689 C51.8672772,22.0479853 51.5076923,23.2720391 51.271917,25.2200244 C52.0322344,24.3445665 53.582906,22.9059829 55.3426129,22.119536 C55.3426129,22.119536 55.5820513,20.2520147 56.8030525,18.5898657 C57.2650794,17.9015873 58.1896215,16.7936508 59.2278388,17.0884005 C60.1350427,17.3923077 59.8161172,19.9034188 58.6105006,22.3334554 C57.7184371,24.1208791 56.3533578,25.908547 54.9721612,27.1413919 C53.7510379,28.1778999 51.9443223,29.4289377 50.3636142,28.4639805 C49.3680098,27.8744811 48.8601954,26.6409035 48.9673993,25.0504274 C49.4431013,20.5379731 51.4973138,16.6954823 54.4368742,12.3169719 C57.4678877,8.25115995 60.8090354,4.07814408 65.3100122,1.85274725 C66.228083,1.38815629 67.0782662,1.28095238 67.8131868,1.56691087 C67.8131868,1.56691087 63.5880342,3.89023199 61.5739927,8.18852259 C61.0616606,9.27887668 60.3490842,10.7528694 61.0666667,12.0576313 C61.4416361,12.73663 62.107326,12.7903541 62.6434676,12.7545788 C65.11221,12.1825397 66.7072039,9.87716728 68.0103785,7.76849817 C68.7659341,6.16898657 69.4374847,4.57838828 69.4374847,2.80903541 C69.4374847,2.59462759 69.4263736,2.30879121 69.4083028,2.09413919 C70.5876679,1.46886447 73.0063492,2.57667888 73.0063492,2.57667888 C74.896337,3.202442 78.9206349,6.28547009 80.2781441,6.87496947 C80.940293,6.10659341 82.0284493,4.94505495 82.6412698,4.36410256 L81.7542125,3.81892552 C80.334188,2.95213675 78.8332112,2.12991453 77.3559219,1.31684982 C74.0007326,-0.514774115 71.2695971,0.128449328 69.8797314,0.628937729 C69.3334554,0.825396825 68.8343101,0.995238095 68.8343101,0.995238095 C67.8028083,-0.130647131 66.110989,-0.0236874237 64.8644689,0.28034188 C60.381685,1.56703297 56.2196581,4.7034188 51.7575092,10.1455433 C48.4769231,14.4080586 46.4420024,18.0897436 45.3573871,21.7264957 C44.5213675,24.1748474 44.2672772,27.7759463 46.3078144,29.9117216 C48.042735,31.7252747 50.3432234,31.3323565 51.9676435,30.6803419 C55.4874237,28.9467643 58.6509158,25.2113553 60.2272283,20.9130647 C60.6076923,19.635409 61.0297924,17.8304029 60.3748474,16.4540904 L60.3748474,16.4540904 Z M68.4684982,2.98791209 C68.0025641,8.33162393 63.84884,11.4683761 62.8210012,11.7181929 C62.1981685,11.8431013 61.135409,11.5663004 62.0842491,9.32368742 C63.4813187,6.3030525 65.8667888,3.73870574 68.4260073,2.42503053 C68.4884005,2.64847375 68.4866911,2.79108669 68.4684982,2.98791209 L68.4684982,2.98791209 Z M93.1080586,3.66678877 C90.8737485,4.93589744 88.5575092,5.75775336 85.7538462,5.47191697 C84.9769231,6.34786325 84.2202686,7.25030525 83.5229548,8.17948718 C87.4581197,9.18034188 91.6299145,6.95531136 93.9566545,4.83772894 C96.4180708,2.7019536 97.6800977,0.0124542125 97.6800977,0.0124542125 C97.6800977,0.0124542125 95.8351648,2.12112332 93.1080586,3.66678877 Z M50.8826618,8.11672772 L47.9517705,8.11672772 L46.2985348,10.8029304 L49.2288156,10.8029304 L50.8826618,8.11672772 Z" id="Shape"></path>
                <path d="M85.7421245,28.1496947 C85.4269841,28.3641026 84.9842491,28.1992674 85.1496947,27.7079365 C85.562149,26.4568987 87.2014652,23.9074481 87.2014652,23.9074481 L91.7675214,15.8090354 L88.6399267,15.8090354 C88.4912088,16.0532357 88.1733822,16.6139194 88.1733822,16.6139194 C88.0286935,16.3728938 87.5959707,15.8369963 87.4178266,15.7211233 C86.6537241,15.2382173 85.5327228,15.4665446 84.7593407,15.9042735 C81.3968254,17.8704518 78.9434676,21.7550672 77.008547,24.7844933 C77.008547,24.7844933 74.9717949,28.1520147 73.8412698,28.402442 C72.9586081,28.4739927 73.0496947,27.2849817 73.0879121,27.0079365 C73.4291819,25.0059829 74.2217338,23.1028083 75.0201465,21.3781441 C76.6443223,20.2522589 78.4976801,18.7778999 80.1820513,17.1605617 C83.8374847,13.6663004 86.9191697,9.70769231 87.3695971,8.82307692 C87.3695971,8.82307692 86.8820513,8.92148962 86.3063492,8.93919414 C83.4941392,12.8620269 77.7393162,18.56337 75.9946276,19.4120879 C76.7675214,17.5529915 81.7611722,8.67997558 86.0105006,4.43553114 L86.679243,3.79194139 C87.7133089,2.78217338 88.7846154,1.74566545 89.619536,1.57582418 C89.7076923,1.56691087 89.8212454,1.57582418 89.9192918,1.78168498 C89.9565324,2.56788767 89.6638584,3.14884005 89.328083,3.81001221 L88.8575092,4.77521368 C88.8575092,4.77521368 89.5240537,4.65006105 89.9619048,4.50671551 C90.4697192,3.55103785 91.0323565,2.47838828 90.8249084,1.2008547 C90.7557998,0.78974359 90.4581197,0.477045177 90.0692308,0.405494505 C88.8015873,0.164224664 87.4201465,1.1021978 86.3084249,1.86202686 L86.2636142,1.88864469 C80.5490842,6.36556777 75.7238095,12.8173382 71.5050061,21.6282051 C71.1992674,21.8601954 70.0179487,22.1374847 69.8172161,22.0032967 C70.2338217,21.1456654 70.7583639,19.992674 71.020757,18.7416361 C71.0661783,18.3840049 71.1084249,18.0179487 71.1084249,17.6605617 C71.1084249,16.891453 70.9238095,16.1678877 70.2349206,15.6677656 C69.4271062,15.2655678 68.4286935,15.4533578 67.7554335,15.7568987 C64.7399267,17.0079365 62.4860806,20.1 60.8595849,22.646398 C59.9848596,24.2642247 59.1126984,25.9969475 58.8711844,27.9810745 C58.7010989,29.5356532 59.0473748,30.53663 59.9313797,31.0371184 C60.840293,31.5014652 61.9843712,31.0188034 62.4338217,30.7866911 C65.4888889,29.1781441 67.6235653,25.9525031 69.306105,23.0035409 C69.3730159,22.9947497 70.2916972,22.9681319 70.9866911,22.7891331 C70.9958486,22.7891331 70.9997558,22.7891331 71.0151404,22.7984127 C70.9753358,22.9319902 70.6162393,24.0046398 70.6162393,24.0046398 C69.5498168,27.1318681 69.0566545,29.2588523 70.0639805,30.5186813 C71.5034188,32.2969475 73.886569,30.4564103 75.8251526,28.0253968 C75.4090354,30.9383394 76.9186813,31.3943834 78.0695971,31.1711844 C79.3915751,30.8139194 80.8647131,29.4017094 81.5483516,28.6781441 C81.3288156,29.526862 81.3884005,31.0462759 82.5910867,31.1979243 C83.4152625,31.3503053 84.0322344,30.9019536 84.7459096,30.5175824 C87.3062271,29.1234432 90.3710623,24.4778999 91.1667888,23.1347985 L90.1234432,23.1347985 C88.9921856,24.8445665 87.5527473,27.0858364 85.7421245,28.1496947 L85.7421245,28.1496947 Z M62.7606838,27.8385836 C62.5982906,27.5971917 62.5444444,27.3334554 62.539072,27.0482295 C62.5079365,25.2959707 64.3931624,22.1582418 65.7236874,20.44884 L65.7264957,20.44884 C66.2840049,21.6698413 67.5467643,22.4547009 68.3090354,22.7854701 C67.3623932,24.8945055 64.1153846,29.4112332 62.7606838,27.8385836 L62.7606838,27.8385836 Z M68.8434676,21.8426129 C68.7533578,21.9056166 67.1610501,21.3691087 66.8532357,19.8947497 C66.5921856,18.6253968 67.4663004,17.6335775 68.3119658,17.1336996 C68.6749695,16.8474969 69.2217338,16.7495726 69.6228327,16.8919414 C69.995116,17.1426129 70.0959707,17.5897436 70.0959707,18.0714286 C70.0959707,18.3669109 70.0567766,18.6704518 70.0222222,18.9473748 L70.014652,19.0101343 C69.7479621,20.0008234 69.3543043,20.9528746 68.8434676,21.8426129 L68.8434676,21.8426129 Z M81.6147741,27.2757021 C81.613431,27.2757021 81.3125763,27.5437118 81.3125763,27.5437118 C80.8830281,27.9278388 80.4410256,28.3388278 79.9074481,28.1332112 C79.7600733,28.0797314 79.6564103,27.8832723 79.6315018,27.7308913 C79.6072039,26.631746 80.1020757,25.6133089 80.5821734,24.6214896 L80.7052503,24.3622711 C82.0859585,22.0568987 83.6908425,19.3404151 86.0478632,17.4551893 C86.4450549,17.1686203 86.8760684,16.9278388 87.3310134,17.1156288 C87.4356532,17.2137973 87.5575092,17.3836386 87.5575092,17.5532357 C87.5575092,17.6070818 87.5096459,17.7499389 87.4821734,17.7945055 C86.8238095,18.8583639 86.1969475,19.9750916 85.5873016,21.0473748 C84.3958486,23.1652015 83.1598291,25.3540904 81.6147741,27.2757021 L81.6147741,27.2757021 Z" id="Shape"></path>
            </g>
        </g>
    </g>
</svg>