<?xml version="1.0" encoding="UTF-8"?>
<svg width="121px" height="40px" viewBox="0 0 121 40" version="1.1" xmlns="http://www.w3.org/2000/svg" xmlns:xlink="http://www.w3.org/1999/xlink">
    <title>whirlpool-logo</title>
    <g id="Whirlpool" stroke="none" stroke-width="1" fill="none" fill-rule="evenodd">
        <g id="whirlpool" transform="translate(-16.000000, -17.000000)" fill-rule="nonzero">
            <g id="whirlpool-logo" transform="translate(16.016106, 17.001620)">
                <g id="g248" transform="translate(0.000000, 4.103243)" fill="#FFFFFF">
                    <polygon id="path238" points="28.3187157 0.230233461 22.1424528 22.7931126 18.558819 22.7931126 14.1943934 6.4064963 9.7598967 22.7931126 6.16625268 22.7931126 0 0.230233461 3.55360341 0.230233461 7.94805947 16.6168498 12.372546 0.230233461 15.8961189 0.230233461 20.360646 16.6168498 24.7551021 0.230233461"></polygon>
                    <path d="M29.9603803,0.290294363 L33.5139837,0 L33.5139837,5.52560306 L33.4539228,7.5977042 L33.5840548,7.5977042 C35.2357296,6.98708502 36.5570695,6.69679066 38.1787139,6.69679066 C41.051627,6.69679066 42.9935962,7.98810007 42.9935962,12.9331144 L42.9935962,22.7931126 L39.4399928,22.7931126 L39.4399928,13.2234088 C39.4399928,10.2503941 37.988521,9.85999821 36.3368462,9.85999821 C35.3058007,9.85999821 34.4249074,10.0902317 33.5239939,10.3404854 L33.5239939,22.7931126 L29.9703905,22.7931126 L29.9703905,0.290294363 L29.9603803,0.290294363 Z" id="path240"></path>
                    <path d="M47.8685395,0.520527824 C49.7104072,0.520527824 50.0007016,1.59161392 50.0007016,2.78282183 C50.0007016,3.97402973 49.6103057,5.07514628 47.8685395,5.07514628 C46.1267733,5.07514628 45.7664079,3.97402973 45.7664079,2.78282183 C45.7664079,1.59161392 46.0967429,0.520527824 47.8685395,0.520527824 Z M46.0967429,6.91701397 L49.6503463,6.91701397 L49.6503463,22.7931126 L46.0967429,22.7931126 L46.0967429,6.91701397 Z" id="path242"></path>
                    <path d="M52.6533914,6.91701397 L55.0758478,6.91701397 L55.5563351,8.20832338 L55.7865685,8.20832338 C56.7275227,7.39750119 58.2090249,6.68678051 60.1509941,6.68678051 C60.3812276,6.68678051 60.6314813,6.68678051 60.8917453,6.71681096 L60.8917453,10.2103535 C60.2410855,10.110252 59.5704054,10.0201606 58.8897152,10.0201606 C57.9187306,10.0201606 57.147949,10.2503941 56.2069948,10.6708204 L56.2069948,22.7931126 L52.6533914,22.7931126 L52.6533914,6.91701397 Z" id="path244"></path>
                    <polygon id="path246" points="62.4132881 22.7931126 62.4132881 0.290294363 65.9668915 0 65.9668915 22.7931126"></polygon>
                </g>
                <path d="M91.2525316,10.8000337 C96.2976474,10.8000337 98.2396166,13.7730484 98.2396166,19.0483977 C98.2396166,23.993412 96.4277794,27.2266906 91.1924707,27.2266906 C85.957162,27.2266906 84.1152588,23.993412 84.1152588,19.0483977 C84.1052842,13.7730484 86.2074158,10.8000337 91.2525316,10.8000337 L91.2525316,10.8000337 Z M94.6159422,19.0383876 C94.6159422,16.0353424 94.1254448,13.5728454 91.2825621,13.5728454 C88.4096489,13.5728454 87.688918,15.9352409 87.688918,19.0383876 C87.688918,21.9113008 88.2695068,24.4038282 91.1123895,24.4038282 C93.9652824,24.4038282 94.6159422,22.0514429 94.6159422,19.0383876 L94.6159422,19.0383876 Z" id="path252" fill="#FFFFFF"></path>
                <path d="M107.198701,10.8000337 C112.243817,10.8000337 114.185786,13.7730484 114.185786,19.0483977 C114.185786,23.993412 112.373949,27.2266906 107.13864,27.2266906 C101.903332,27.2266906 100.061428,23.993412 100.061428,19.0483977 C100.051454,13.7730484 102.153585,10.8000337 107.198701,10.8000337 L107.198701,10.8000337 Z M110.562112,19.0383876 C110.562112,16.0353424 110.071614,13.5728454 107.228732,13.5728454 C104.355819,13.5728454 103.635088,15.9352409 103.635088,19.0383876 C103.635088,21.9113008 104.215676,24.4038282 107.058559,24.4038282 C109.911452,24.4038282 110.562112,22.0514429 110.562112,19.0383876 Z" id="path254" fill="#FFFFFF"></path>
                <polygon id="path256" fill="#FFFFFF" points="116.488121 26.8963557 116.488121 4.39353744 120.041724 4.10324308 120.041724 26.8963557"></polygon>
                <path d="M68.8798453,11.020257 L71.5625657,11.020257 L71.85286,12.1814345 C72.9239461,11.6008458 74.8959458,10.7900236 76.6677424,10.7900236 C79.901021,10.7900236 82.2634165,13.1524191 82.2634165,18.8081541 C82.2634165,24.3737978 79.770889,27.116579 75.6366969,27.116579 C74.115154,27.116579 72.4334487,26.7962542 72.4334487,26.7962542 L72.4334487,34.0736336 L68.8798453,34.4640294 L68.8798453,11.020257 Z M72.4434589,23.9533714 C73.4444739,23.9834019 73.9950322,24.0134323 75.0260777,24.0134323 C77.2283108,24.0134323 78.6797826,22.8522549 78.6797826,18.2275654 C78.6797826,15.0643578 77.3884732,14.2235052 75.0561082,14.2235052 C74.1551946,14.2235052 73.314342,14.3836676 72.4334487,14.673962 L72.4334487,23.9533714 L72.4434589,23.9533714 Z" id="path258" fill="#FFFFFF"></path>
                <path d="M86.4877,1.2703705 C83.825,-1.81275584 75.3864431,0.899994931 65.9769017,7.41660288 L65.9769017,9.05826756 C74.2653063,3.16228894 81.5827263,0.43952801 83.6748477,2.87199457 C86.287497,5.90507016 79.7808992,15.805109 69.1501194,24.9944271 C58.5093295,34.1637249 47.7584279,39.1487798 45.1457786,36.1157043 C43.7843981,34.5441106 44.8955248,31.110629 47.7584279,26.8963557 L46.0967429,26.8963557 C42.5531496,32.1817151 41.2217996,36.6262219 43.043647,38.7383637 C46.3670169,42.5822615 58.7796035,37.3269325 70.7817739,26.9664267 C82.763924,16.6259413 89.8110699,5.11426828 86.4877,1.2703705 Z" id="path260" fill="#EEB111"></path>
            </g>
        </g>
    </g>
</svg>