<?xml version="1.0" encoding="UTF-8"?>
<svg width="256px" height="32px" viewBox="0 0 256 32" version="1.1" xmlns="http://www.w3.org/2000/svg" xmlns:xlink="http://www.w3.org/1999/xlink">
    <title>logo/credit</title>
    <g id="logo/credit" stroke="none" stroke-width="1" fill="none" fill-rule="evenodd">
        <g id="Group" fill-rule="nonzero">
            <g id="g2440-Clipped" transform="translate(0.000000, 3.067548)" fill="#FFFFFF">
                <g id="g2440" transform="translate(39.131121, 14.466226) scale(-1, 1) rotate(90.000000) translate(-39.131121, -14.466226) translate(24.664895, -24.664895)">
                    <path d="M28.2656538,73.007927 L26.2468577,73.007927 C29.1577774,70.8592913 29.0991401,67.5651355 28.334762,64.9599671 C27.6394919,62.5977244 25.6521087,60.8742087 23.3736334,59.9381072 C18.1591083,57.7936599 11.1645243,59.0669254 8.70385484,64.6207088 C7.55414628,67.2133121 8.01486738,70.9807542 10.387581,72.9555723 C10.387581,72.9555723 2.14486177,72.9807026 1.73649534,72.9597607 L1.73649534,78.2496766 L28.2635596,78.2622417 L28.2656538,73.007927 M23.0615996,65.1568207 C24.7767386,66.2583629 25.3170388,68.4970486 24.5652257,70.0132399 C22.4480028,74.2874751 15.3277677,73.9147099 12.831497,70.8718565 C11.0786627,68.7357859 12.5341225,65.2740951 16.0418854,64.2207192 C18.0397396,63.6196876 20.9841663,63.8249179 23.0615996,65.1568207" id="path2446"></path>
                    <path d="M24.1463883,11.708985 C24.994534,15.2942328 23.0239042,18.2533188 20.0564415,18.9255528 L20.0564415,24.3180989 C23.8050359,23.6961103 26.642659,21.304549 27.9619967,18.0082989 C30.1231975,12.6032028 28.6782086,6.30388889 23.5914288,2.71864108 C19.019819,-0.500124039 13.346667,-0.676035731 8.28082911,1.2233917 C1.79932094,3.65474258 -1.71472451,11.1121418 0.835995014,17.5852732 C2.17627457,20.9841384 4.80447901,23.0929845 9.07033753,24.3180989 C9.07033753,24.3285547 9.06614916,18.883669 9.06614916,18.883669 C6.4882052,18.0459943 4.38354746,15.9936912 4.46940912,12.9675913 C4.52385798,11.0116208 5.2819536,9.17292481 7.42640089,7.54783585 C12.6053249,3.61704722 22.4647563,4.58037315 24.1463883,11.708985" id="path2448"></path>
                </g>
            </g>
            <path d="M31.7021836,11.7944603 L31.8990395,13.9284358 C33.1743996,11.9515212 35.9198784,11.2038968 37.8381513,11.5096505 L37.8360582,15.7105875 C36.0601901,15.4697547 32.1440586,16.3430305 31.9953701,20.3073294 L31.9911839,26.6569022 L31.9995606,31.3688213 L26.7975991,31.3688213 L26.7934129,11.7965534 L31.7021836,11.7944603" id="path2450" fill="#FFFFFF"></path>
            <path d="M94.9570963,31.3499747 C93.4555681,31.3499747 90.7561594,30.93323 90.7561594,25.036002 L90.7477826,15.3315403 L88.1237647,15.3315403 L88.1195785,11.7525765 L90.7456895,11.7546696 L90.7456895,5.34226894 L96.1319354,5.34226894 L96.125656,11.7546696 L99.5203312,11.7525765 L99.5203312,15.3545775 L96.0837722,15.3524801 L96.0900516,24.9522344 C96.0900516,27.6642061 97.1643695,27.6013826 99.9245086,27.563685 L99.9224155,31.3583514 L94.9570963,31.3499747" id="path2452" fill="#FFFFFF"></path>
            <path d="M188.521177,29.7248839 C188.491856,29.7144141 188.012288,30.2044565 187.819623,30.3468613 C183.67523,33.4336896 178.483738,31.8127894 177.227229,27.8757182 C176.873308,26.7699863 176.513107,24.9815509 176.590596,23.2349993 L176.582219,11.76933 L181.750669,11.76933 L181.748576,22.7952218 C181.748576,27.0464193 183.836481,27.7521599 185.574656,27.3500799 C186.875147,27.0485167 188.525363,26.5752278 188.525363,23.4486088 L188.529554,11.7651395 L193.681255,11.76933 L193.681255,31.3583514 L188.665675,31.3478816 C188.632168,31.3415979 188.544214,29.7374512 188.521177,29.7248839" id="path2454" fill="#FFFFFF"></path>
            <path d="M135.10894,13.7315798 C135.232499,14.2446551 135.31208,14.7723908 135.31208,15.3231636 C135.31208,18.6256945 132.977058,21.3565171 129.871379,22.0161834 C128.139488,18.4749128 125.065222,17.2016501 122.418171,17.2037433 C122.401418,17.1534827 122.386758,17.1074084 122.367911,17.0550548 C121.97839,15.9891136 121.442277,14.4582645 122.269483,12.3284753 C123.385685,10.0374345 125.714419,8.44375767 128.434767,8.44375767 C130.208546,8.44375767 131.814786,9.13484222 133.033602,10.2405698 L126.943709,0 L117.614104,0 L111.444629,10.2594207 C112.665542,9.14321898 114.280159,8.44375767 116.068594,8.44375767 C118.319844,8.44375767 120.292568,9.54530329 121.542798,11.2227434 C120.13341,14.110627 120.883132,16.2508861 121.316626,17.4382924 C121.381547,17.6225811 121.442277,17.7796463 121.484161,17.9178607 L121.544896,18.1209959 C120.323982,20.8057443 117.51568,22.2088488 115.050821,22.087388 C115.013127,22.0811044 114.973337,22.0811044 114.935639,22.0748207 C114.797425,22.0643508 114.66549,22.0329369 114.529369,22.0119972 C111.471857,21.3146333 109.187095,18.5921874 109.187095,15.3231636 C109.187095,14.7263207 109.287616,14.1587944 109.430021,13.6080259 L103.524417,23.4234785 L108.341047,31.3646351 L120.332359,31.3646351 C117.513583,30.5039223 115.448714,27.9155088 115.448714,24.8140158 C115.448714,24.2464938 115.540859,23.7020046 115.672794,23.1721758 C118.462249,23.0402408 121.435998,21.3607033 122.68413,18.3094751 C124.175193,18.3702055 126.979309,18.9502948 128.698637,22.1732487 C128.692353,22.1753418 128.68607,22.1774349 128.677693,22.1774349 C129.016954,22.9899803 129.207522,23.8800096 129.207522,24.8140158 C129.207522,27.9155088 127.142654,30.5039223 124.323881,31.3646351 L136.057607,31.3646351 L140.874238,23.4234785 L135.10894,13.7315798" id="path2456" fill="#DE0029"></path>
            <polygon id="path2458" fill="#FFFFFF" points="81.3574472 11.76933 81.3574472 31.3332212 86.5028645 31.3332212 86.5028645 11.76933"></polygon>
            <polygon id="path2460" fill="#FFFFFF" points="81.4035215 4.78521678 81.4035215 9.30237735 86.3981572 9.30237735 86.3981572 4.78521678"></polygon>
            <polygon id="path2462" fill="#FFFFFF" points="250.542613 4.64071451 250.542613 31.362542 255.677561 31.362542 255.677561 4.64071451"></polygon>
            <polyline id="path2464" fill="#FFFFFF" points="49.4022529 9.34007061 52.8765095 4.4312956 47.0106911 4.4312956 45.3018328 9.34007061 49.4022529 9.34007061"></polyline>
            <path d="M233.895922,22.9857941 C233.895922,28.4160211 241.717711,28.7133938 242.62868,25.3501282 L247.820172,25.3396583 C247.378297,27.9301692 245.612899,29.6369301 243.514523,30.8829694 C240.959613,32.3991624 237.033016,32.1541433 234.323137,30.8829694 C231.586035,29.5992369 229.663572,27.2746891 228.84684,24.25068 C227.552629,19.4508071 229.462529,14.8687256 233.858229,12.3159123 C236.781713,10.6196212 239.543945,11.1243197 241.204636,11.637395 C245.231754,12.8792481 248.578266,17.2079295 248.037968,22.9836967 L233.895922,22.9857941 Z M236.402666,19.1743741 L242.936527,19.1743741 C242.930244,19.1659974 242.896736,17.7126323 242.040214,16.8142262 C241.28212,16.0205275 240.831868,15.7315315 239.939746,15.4969823 C236.823597,14.6739671 234.666584,16.3660676 234.02995,18.3052846 C233.906392,18.6801455 233.749331,19.184844 233.768178,19.1827574 L236.402666,19.1743741" id="path2466" fill="#FFFFFF"></path>
            <path d="M202.357469,31.3499747 C200.853843,31.3499747 198.156532,30.93323 198.156532,25.036002 L198.148155,15.3315403 L195.522044,15.3315403 L195.522044,11.7525765 L198.146057,11.7546696 L198.146057,5.34226894 L203.532308,5.34226894 L203.526024,11.7546696 L206.918606,11.7525765 L206.918606,15.3545775 L203.48414,15.3524801 L203.490424,24.9522344 C203.490424,27.6642061 204.562649,27.6013826 207.324881,27.563685 L207.32069,31.3583514 L202.357469,31.3499747" id="path2468" fill="#FFFFFF"></path>
            <polyline id="path2470" fill="#FFFFFF" points="162.031806 31.3143745 167.614912 11.76933 167.614912 31.3311281 172.760325 31.3311281 172.760325 4.76008651 164.758438 4.76008651 159.453862 23.4821158 154.149286 4.76008651 146.147399 4.76008651 146.147399 31.3311281 151.29491 31.3311281 151.29491 11.76933 156.878016 31.3143745 162.031806 31.3143745"></polyline>
            <path d="M220.911963,29.7248839 C220.882646,29.7144141 220.403078,30.2044565 220.210413,30.3468613 C216.066015,33.4336896 210.870338,31.8127894 209.618015,27.8757182 C209.262005,26.7699863 208.901804,24.9815509 208.981381,23.2349993 L208.970911,11.76933 L214.143552,11.76933 L214.139366,22.7952218 C214.139366,27.0464193 216.225174,27.7521599 217.963349,27.3500799 C219.265932,27.0485167 220.916153,26.5752278 220.916153,23.4486088 L220.918246,11.7651395 L226.069947,11.76933 L226.069947,31.3583514 L221.054368,31.3478816 C221.022958,31.3415979 220.935,29.7374512 220.911963,29.7248839" id="path2472" fill="#FFFFFF"></path>
            <path d="M43.0191688,22.9857941 C43.0191688,28.4160211 50.8409576,28.7133938 51.7540241,25.3501282 L56.9434183,25.3396583 C56.5036407,27.9301692 54.7361451,29.6369301 52.6377697,30.8829694 C50.0849564,32.3991624 46.158355,32.1541433 43.4442902,30.8829694 C40.7092814,29.5992369 38.7889153,27.2746891 37.9721794,24.25068 C36.6758796,19.4508071 38.5857758,14.8687256 42.9814755,12.3159123 C45.9070523,10.6196212 48.6692889,11.1243197 50.3278824,11.637395 C54.3529117,12.8792481 57.7015126,17.2079295 57.161214,22.9836967 L43.0191688,22.9857941 Z M45.523819,19.3209652 L52.0597736,19.3209652 C52.0534942,19.3146816 52.0220803,17.8592234 51.165558,16.9608173 C50.4053663,16.1671186 49.957212,15.8802157 49.0650895,15.6435734 C45.9489361,14.8226513 43.7898304,16.512663 43.1531969,18.45188 C43.0296429,18.828834 42.8725777,19.3335325 42.8935174,19.3293679 L45.523819,19.3209652" id="path2474" fill="#FFFFFF"></path>
        </g>
    </g>
</svg>