<?xml version="1.0" encoding="UTF-8"?>
<svg width="366px" height="68px" viewBox="0 0 366 68" version="1.1" xmlns="http://www.w3.org/2000/svg" xmlns:xlink="http://www.w3.org/1999/xlink">
    <title>Nvidia-02</title>
    <g id="Page-1" stroke="none" stroke-width="1" fill="none" fill-rule="evenodd">
        <g id="Nvidia-02" transform="translate(0.600000, 0.400000)" fill-rule="nonzero">
            <path d="M360.2,53.9 L360.2,52.9 L360.8,52.9 C361.2,52.9 361.6,52.9 361.6,53.4 C361.6,53.9 361.4,53.9 360.9,53.9 L360.2,53.9 M360.2,54.6 L360.6,54.6 L361.6,56.4 L362.7,56.4 L361.6,54.6 C362.2,54.6 362.6,54.3 362.6,53.5 C362.6,52.5 361.9,52.2 360.8,52.2 L359.2,52.2 L359.2,56.4 L360.1,56.4 L360.1,54.6 M364.9,54.3 C364.9,51.8 363,50.4 360.9,50.4 C358.8,50.4 356.8,51.8 356.8,54.3 C356.8,56.8 358.7,58.2 360.9,58.2 C363,58.2 364.9,56.8 364.9,54.3 M363.7,54.3 C363.7,56.1 362.4,57.3 360.8,57.3 L360.8,57.3 C359.2,57.3 357.9,56.1 357.9,54.3 C357.9,52.5 359.2,51.3 360.8,51.3 C362.4,51.3 363.7,52.5 363.7,54.3 Z" id="XMLID_7_" fill="#FFFFFF"></path>
            <path d="M216.4,12.7 L216.4,56.9 L228.9,56.9 L228.9,12.7 L216.4,12.7 Z M118.3,12.6 L118.3,56.8 L130.9,56.8 L130.9,22.5 L140.7,22.5 C143.9,22.5 146.2,23.3 147.7,24.9 C149.7,27 150.5,30.4 150.5,36.6 L150.5,56.8 L162.7,56.8 L162.7,32.4 C162.7,15 151.6,12.6 140.7,12.6 L118.3,12.6 L118.3,12.6 Z M236.5,12.7 L236.5,56.9 L256.7,56.9 C267.5,56.9 271,55.1 274.8,51.1 C277.5,48.3 279.2,42.1 279.2,35.3 C279.2,29.1 277.7,23.6 275.2,20.1 C270.6,13.9 263.9,12.7 254,12.7 L236.5,12.7 Z M248.9,22.3 L254.3,22.3 C262.1,22.3 267.1,25.8 267.1,34.9 C267.1,44 262.1,47.5 254.3,47.5 L248.9,47.5 L248.9,22.3 Z M198.5,12.7 L188.1,47.7 L178.1,12.7 L164.6,12.7 L178.8,56.9 L196.8,56.9 L211.2,12.7 L198.5,12.7 L198.5,12.7 Z M285.1,56.8 L297.6,56.8 L297.6,12.6 L285.1,12.6 L285.1,56.8 Z M320.1,12.7 L302.7,56.8 L315,56.8 L317.8,49 L338.4,49 L341,56.8 L354.4,56.8 L336.8,12.7 L320.1,12.7 Z M328.2,20.7 L335.8,41.4 L320.4,41.4 L328.2,20.7 Z" id="XMLID_16_" fill="#FFFFFF"></path>
            <path d="M37.8,20 L37.8,13.9 C38.4,13.9 39,13.8 39.6,13.8 C56.2,13.3 67.1,28.1 67.1,28.1 C67.1,28.1 55.3,44.5 42.7,44.5 C40.9,44.5 39.3,44.2 37.8,43.7 L37.8,25.3 C44.3,26.1 45.6,28.9 49.5,35.4 L58.2,28.1 C58.2,28.1 51.9,19.8 41.2,19.8 C40,19.8 38.9,19.9 37.8,20 M37.8,0 L37.8,9.1 C38.4,9.1 39,9 39.6,9 C62.7,8.2 77.8,28 77.8,28 C77.8,28 60.5,49 42.5,49 C40.8,49 39.3,48.8 37.8,48.6 L37.8,54.2 C39,54.4 40.3,54.5 41.7,54.5 C58.5,54.5 70.6,45.9 82.4,35.8 C84.3,37.4 92.3,41.2 94,42.8 C82.8,52.1 56.8,59.7 42,59.7 C40.6,59.7 39.2,59.6 37.9,59.5 L37.9,67.4 L101.7,67.4 L101.7,0.1 L37.8,0.1 L37.8,0 Z M37.8,43.7 L37.8,48.5 C22.3,45.7 18,29.6 18,29.6 C18,29.6 25.4,21.3 37.8,20 L37.8,25.3 L37.8,25.3 C31.3,24.5 26.2,30.6 26.2,30.6 C26.2,30.6 29.1,40.8 37.8,43.7 M10.3,28.9 C10.3,28.9 19.5,15.3 37.9,13.9 L37.9,9 C17.6,10.6 0,27.9 0,27.9 C0,27.9 10,56.7 37.9,59.4 L37.9,54.2 C17.3,51.5 10.3,28.9 10.3,28.9 Z" id="XMLID_21_" fill="#76B900"></path>
        </g>
    </g>
</svg>