<?xml version="1.0" encoding="UTF-8"?>
<svg width="91px" height="40px" viewBox="0 0 91 40" version="1.1" xmlns="http://www.w3.org/2000/svg" xmlns:xlink="http://www.w3.org/1999/xlink">
    <title>logo/bmc</title>
    <g id="logo/bmc" stroke="none" stroke-width="1" fill="none" fill-rule="evenodd">
        <g id="BMC_Logo_subline_white_on_black_CMYK" transform="translate(0.000000, 4.000000)">
            <path d="M22.7238909,6.80071478 C23.6172517,6.80071478 23.8166561,6.92065063 24.088931,7.21609164 C24.4654533,7.63014891 24.6496091,7.95256816 24.6496091,8.1997709 C24.6496091,8.50107675 24.0151807,8.97026346 23.4523033,9.38593356 L23.2949791,9.49912486 C22.6913411,9.95027721 22.3780123,10.0291592 21.1884774,10.0291592 L8.86074313,10.0291592 C8.68670418,10.0291592 8.54697451,9.96259336 8.45958849,9.84251088 C8.3717626,9.72286827 8.34683706,9.55586712 8.39360911,9.37889576 L8.82716695,7.56021077 C8.92569616,7.14835281 9.3444453,6.80071478 9.7425209,6.80071478 L22.7238909,6.80071478 Z M20.958136,14.212252 C21.851057,14.212252 22.0475289,14.3327743 22.3183376,14.6282153 C22.6942735,15.0418328 22.8784293,15.363079 22.8784293,15.6102818 C22.8784293,15.9149599 22.2428279,16.384 21.682443,16.7996701 L21.5298107,16.9102222 C20.9228004,17.3603482 20.6087385,17.4405498 19.4227225,17.4405498 L7.07328837,17.4405498 C6.89998253,17.4405498 6.76010624,17.3747171 6.67433305,17.2547812 C6.58665378,17.1305934 6.56480727,16.967551 6.60571449,16.7908729 L7.04352434,14.9723345 C7.14220017,14.5616495 7.55918986,14.212252 7.95638574,14.212252 L20.958136,14.212252 Z M26.8093342,11.7714548 L29.0982322,9.95408935 C30.0427637,9.17626575 30.3213434,7.58117755 29.6237214,6.47741581 L27.0827821,2.78139748 C26.788514,2.3497457 26.1361979,1.99609622 25.636514,1.99609622 L11.0874739,1.99609622 C10.5880833,1.99609622 10.2829653,1.57353494 10.4108187,1.05523024 L10.4108187,0.939693013 C10.5358863,0.4219748 10.2304751,0 9.73108448,0 L6.05104782,0.00718442153 C5.55283018,0.00865063001 5.08335023,0.280632302 4.96048196,0.79747079 L0.0288897476,21.3133929 C-0.0988170107,21.8325773 0.209526632,22.2564582 0.704078751,22.2564582 L20.8642987,22.2564582 C21.3625163,22.2564582 22.1000192,21.9972325 22.4998542,21.6783322 L27.2195793,17.9419931 C28.2748096,17.0654937 28.4104338,15.1450538 27.6994694,14.1005269 C27.6994694,14.1005269 26.6835335,12.6195097 26.6740031,12.6054341 C26.5548004,12.4010447 26.5864705,11.9553173 26.8093342,11.7714548 Z M70.9974854,1.99814891 C70.4985347,1.99814891 69.7629379,2.25854754 69.3626629,2.57950057 L65.0184338,6.051189 C64.6174258,6.37038259 64.1859207,7.05744788 64.0615862,7.57428637 L61.9131509,16.47989 C61.7851509,17.0009805 61.9275198,17.7751386 62.2217878,18.2047377 L64.4624476,21.4735029 C64.7568623,21.9048614 65.4066859,22.2564582 65.9051967,22.2564582 L84.7015495,22.2564582 C85.1965415,22.2564582 85.7105942,21.8343368 85.8374212,21.3157388 L86.560262,18.3717388 C86.6920742,17.8537274 86.3835839,17.4302864 85.8890318,17.4302864 C85.8890318,17.4302864 69.7715885,17.4302864 69.0999184,17.4302864 C68.624427,17.4302864 68.4448164,17.2163666 68.3002483,16.9813333 L67.8190387,16.2684628 C67.5711028,15.8322658 67.5996939,15.6201054 67.7266675,15.1031203 L69.4944751,7.76855899 C69.6191028,7.24981443 70.1312494,6.82564032 70.6258015,6.82564032 L88.4222002,6.82564032 C88.9190982,6.82564032 89.4274327,6.40205269 89.5558726,5.88286827 L90.2614121,2.94062772 C90.3841337,2.42173654 90.0790157,1.99814891 89.5793319,1.99814891 L70.9974854,1.99814891 Z M36.9719184,1.21270103 C37.2658932,1.6436197 37.9148371,1.99814891 38.4143743,1.99814891 L56.4726377,1.99814891 C56.9746675,1.99814891 57.6268371,2.34798625 57.9211051,2.77934479 L60.5473777,6.57550515 C60.8438451,7.00466438 60.9844545,7.77940893 60.8611463,8.29786025 L57.7266859,21.2997572 C57.6039642,21.8171821 57.0921108,22.241063 56.5919871,22.241063 L52.9050593,22.241063 C52.4061085,22.241063 52.1008439,21.8171821 52.2235656,21.2997572 L55.4915977,7.76855899 C55.6179848,7.24981443 55.3127202,6.82564032 54.8153823,6.82564032 L50.7195289,6.82564032 C50.2239505,6.82564032 49.7120971,7.24981443 49.5883491,7.76855899 L46.3210501,21.2997572 C46.195396,21.8171821 45.6848623,22.241063 45.1866446,22.241063 L41.5074877,22.241063 C41.0079505,22.241063 40.7032723,21.8171821 40.8280467,21.2997572 L44.0962254,7.76855899 C44.224372,7.24981443 43.9208668,6.82564032 43.4183972,6.82564032 L39.3121337,6.82564032 C38.81201,6.82564032 38.3007431,7.24981443 38.1800742,7.76855899 L34.9253846,21.3133929 C34.7969447,21.8325773 34.2906629,22.2564582 33.791419,22.2564582 L30.1159275,22.2564582 C29.6165369,22.2564582 29.3117122,21.8325773 29.4359001,21.3133929 L32.9432174,6.70834364 C33.0691647,6.19150515 32.9291418,5.41558763 32.6294487,4.98598855 L32.2752128,4.49862085 C31.9791853,4.06960825 32.065545,3.45746621 32.4666996,3.13841924 L35.5087889,0.730904926 C35.9067179,0.41347079 36.4745805,0.506281787 36.7726607,0.939693013 L36.9719184,1.21270103 L36.9719184,1.21270103 Z" id="Fill-2" fill="#FFFFFE"></path>
            <path d="M3.75819101,28.4789003 C3.67637657,27.7905155 3.17214748,27.4939015 2.44446821,27.4939015 C1.85109364,27.4939015 1.25713259,27.6896403 1.25713259,28.3171775 C1.25713259,28.9108454 2.10342812,28.9980848 2.95676145,29.1737365 C3.80261712,29.3492417 4.64876604,29.6187308 4.64876604,30.5635556 C4.64876604,31.5885819 3.54280498,32 2.57818643,32 C1.39070418,32 0.38913717,31.4739244 0.38913717,30.3002245 L1.05684851,30.3002245 C1.05684851,31.1103047 1.79918986,31.460142 2.60061942,31.460142 C3.23900659,31.460142 3.943813,31.2789187 3.943813,30.5836426 C3.943813,29.9228225 3.09795733,29.8080183 2.25180842,29.6394044 C1.40565951,29.4700573 0.552032932,29.2482199 0.552032932,28.3640962 C0.552032932,27.3861352 1.50976031,26.9540435 2.47408562,26.9540435 C3.55790693,26.9540435 4.38176947,27.4194181 4.42590235,28.4789003 L3.75819101,28.4789003" id="Fill-3" fill="#FFFFFE"></path>
            <polyline id="Fill-4" fill="#FFFFFE" points="12.3772975 31.885929 11.6427271 31.885929 10.4328119 27.8380206 10.4180031 27.8380206 9.19386569 31.885929 8.459002 31.885929 7.10085309 27.0694341 7.82076145 27.0694341 8.86001002 31.0762887 8.87467211 31.0762887 10.0620077 27.0694341 10.8261956 27.0694341 11.9990157 31.0762887 12.0135312 31.0762887 13.0897282 27.0694341 13.7948279 27.0694341 12.3772975 31.885929"></polyline>
            <polygon id="Fill-5" fill="#FFFFFE" points="16.8658015 31.885929 17.5704613 31.885929 17.5704613 27.0694341 16.8658015 27.0694341"></polygon>
            <polyline id="Fill-6" fill="#FFFFFE" points="22.2202483 27.6081191 20.4542002 27.6081191 20.4542002 27.0694341 24.6915427 27.0694341 24.6915427 27.6081191 22.9252013 27.6081191 22.9252013 31.885929 22.2202483 31.885929 22.2202483 27.6081191"></polyline>
            <polyline id="Fill-7" fill="#FFFFFE" points="27.3497786 31.346071 30.6449356 27.6081191 27.6019665 27.6081191 27.6019665 27.0694341 31.4759825 27.0694341 31.4759825 27.6081191 28.1884499 31.346071 31.5649814 31.346071 31.5649814 31.885929 27.3497786 31.885929 27.3497786 31.346071"></polyline>
            <polyline id="Fill-8" fill="#FFFFFE" points="34.7874144 27.0694341 38.4460444 27.0694341 38.4460444 27.6081191 35.4922208 27.6081191 35.4922208 29.1397205 38.2454671 29.1397205 38.2454671 29.6795785 35.4922208 29.6795785 35.4922208 31.346071 38.4683308 31.346071 38.4683308 31.885929 34.7874144 31.885929 34.7874144 27.0694341"></polyline>
            <path d="M44.2132288,29.2882474 C44.8746355,29.2882474 45.4400054,29.1328293 45.4400054,28.4312486 C45.4400054,27.9597159 45.1574671,27.6081191 44.4956206,27.6081191 L42.7420352,27.6081191 L42.7420352,29.2882474 L44.2132288,29.2882474 Z M42.0370822,27.0694341 L44.5330089,27.0694341 C45.5291509,27.0694341 46.1453983,27.5617869 46.1453983,28.3303734 C46.1453983,28.9108454 45.8631532,29.3898557 45.2240329,29.5517251 L45.2240329,29.5655074 C45.8408668,29.6726873 45.9669608,30.0846919 46.0193044,30.5565178 C46.0634373,31.0287835 46.0342597,31.5554456 46.3313136,31.885929 L45.5441062,31.885929 C45.3432357,31.6903368 45.4542277,31.1705659 45.3504201,30.6983001 C45.27623,30.226181 45.1499894,29.8281054 44.4658565,29.8281054 L42.7420352,29.8281054 L42.7420352,31.885929 L42.0370822,31.885929 L42.0370822,27.0694341 L42.0370822,27.0694341 Z" id="Fill-9" fill="#FFFFFE"></path>
            <polyline id="Fill-10" fill="#FFFFFE" points="49.4984705 27.0694341 50.2031303 27.0694341 50.2031303 31.346071 53.008427 31.346071 53.008427 31.885929 49.4984705 31.885929 49.4984705 27.0694341"></polyline>
            <path d="M56.9108875,29.8959908 L58.7064064,29.8959908 L57.8236022,27.6493196 L57.8080604,27.6493196 L56.9108875,29.8959908 Z M57.438136,27.0694341 L58.2165461,27.0694341 L60.287419,31.885929 L59.5078359,31.885929 L58.9291234,30.4357022 L56.6884636,30.4357022 L56.0940627,31.885929 L55.3672632,31.885929 L57.438136,27.0694341 L57.438136,27.0694341 Z" id="Fill-11" fill="#FFFFFE"></path>
            <polyline id="Fill-12" fill="#FFFFFE" points="63.1155885 27.0694341 63.8654075 27.0694341 66.6561887 30.9749737 66.6705576 30.9749737 66.6705576 27.0694341 67.3387088 27.0694341 67.3387088 31.885929 66.56675 31.885929 63.7988416 28.0199771 63.7832998 28.0199771 63.7832998 31.885929 63.1155885 31.885929 63.1155885 27.0694341"></polyline>
            <path d="M71.4461452,31.346071 L72.6180856,31.346071 C73.1000284,31.346071 74.3992357,31.2249622 74.3992357,29.4501168 C74.3992357,28.3033952 73.9318084,27.6081191 72.6336274,27.6081191 L71.4461452,27.6081191 L71.4461452,31.346071 Z M70.7410455,27.0694341 L72.559144,27.0694341 C74.1916206,27.0694341 75.1049218,27.811189 75.1049218,29.3624376 C75.1049218,30.9749737 74.3253388,31.885929 72.559144,31.885929 L70.7410455,31.885929 L70.7410455,27.0694341 L70.7410455,27.0694341 Z" id="Fill-13" fill="#FFFFFE"></path>
            <path d="M86.2780169,27.0758855 L82.0490318,27.0758855 C81.8937603,27.0758855 81.7669333,27.2016861 81.7669333,27.3581306 L81.7669333,31.5859427 C81.7669333,31.7419473 81.8937603,31.868921 82.0490318,31.868921 L86.2780169,31.868921 C86.4341681,31.868921 86.5604086,31.7419473 86.5604086,31.5859427 L86.5604086,27.3581306 C86.5604086,27.2016861 86.4341681,27.0758855 86.2780169,27.0758855" id="Fill-14" fill="#D8232A"></path>
            <polyline id="Fill-15" fill="#FFFFFE" points="83.6690455 27.8215991 83.6690455 28.9763849 82.5136733 28.9763849 82.5136733 29.9676884 83.6690455 29.9676884 83.6690455 31.1224742 84.6585896 31.1224742 84.6585896 29.9676884 85.8139619 29.9676884 85.8139619 28.9763849 84.6585896 28.9763849 84.6585896 27.8215991 83.6690455 27.8215991"></polyline>
        </g>
    </g>
</svg>